<svg width="26" height="24" viewBox="0 0 26 24" fill="none" xmlns="http://www.w3.org/2000/svg">
<path d="M25.1176 9.111C25.0264 8.8303 24.7837 8.6257 24.4917 8.58331L16.7398 7.45641L13.2732 0.432257C13.1426 0.167589 12.873 0 12.578 0C12.2828 0 12.0133 0.167589 11.8826 0.432257L8.41607 7.45641L0.663976 8.58331C0.371807 8.62581 0.12916 8.83041 0.0379738 9.111C-0.0532127 9.39169 0.0227761 9.69978 0.2342 9.90583L5.84362 15.3735L4.51955 23.0935C4.46972 23.3845 4.58923 23.6785 4.82795 23.8519C5.06667 24.0254 5.38324 24.0483 5.6445 23.9109L12.578 20.2661L19.5114 23.9109C19.6248 23.9706 19.7487 23.9999 19.8721 23.9999C19.8728 23.9999 19.8735 23.9999 19.8742 23.9999C19.8742 23.9999 19.8742 23.9999 19.8743 23.9999C20.3026 23.9999 20.6497 23.6528 20.6497 23.2245C20.6497 23.1595 20.6417 23.0963 20.6267 23.036L19.3123 15.3733L24.9214 9.90573C25.1328 9.69988 25.2089 9.39169 25.1176 9.111ZM17.9379 14.5476C17.7551 14.7257 17.6717 14.9824 17.7149 15.2339L18.8424 21.8073L12.9389 18.7039C12.713 18.5851 12.4432 18.5851 12.2174 18.7039L6.31371 21.8073L7.44124 15.2339C7.48446 14.9824 7.40102 14.7258 7.21824 14.5476L2.44191 9.89197L9.04279 8.93245C9.29537 8.89575 9.51372 8.73715 9.62661 8.50826L12.5783 2.52748L15.53 8.50826C15.6429 8.73705 15.8612 8.89575 16.1137 8.93245L22.7143 9.89197L17.9379 14.5476Z" fill="black"/>
</svg>
